<svg xmlns="http://www.w3.org/2000/svg" viewBox="0 0 64 64" role="img" aria-label="Recipe App icon">
  <defs>
    <linearGradient id="bg" x1="8" y1="6" x2="56" y2="58" gradientUnits="userSpaceOnUse">
      <stop offset="0" stop-color="#315443"/>
      <stop offset="1" stop-color="#1f3a2f"/>
    </linearGradient>
    <linearGradient id="steam" x1="24" y1="12" x2="38" y2="28" gradientUnits="userSpaceOnUse">
      <stop offset="0" stop-color="#ffd7bf"/>
      <stop offset="1" stop-color="#f3d7be"/>
    </linearGradient>
  </defs>

  <rect x="4" y="4" width="56" height="56" rx="16" fill="url(#bg)"/>
  <path d="M24 17c-2 3 1 5 1 8s-3 5-1 8" fill="none" stroke="url(#steam)" stroke-linecap="round" stroke-width="3"/>
  <path d="M33 15c-2 3 1 5 1 8s-3 5-1 8" fill="none" stroke="url(#steam)" stroke-linecap="round" stroke-width="3"/>
  <path d="M19 32h26c3.866 0 7 3.134 7 7v1c0 6.075-4.925 11-11 11H23c-6.075 0-11-4.925-11-11v-1c0-3.866 3.134-7 7-7Z" fill="#fff8ef"/>
  <path d="M17 36h30" fill="none" stroke="#c76538" stroke-linecap="round" stroke-width="3"/>
  <path d="M49 39h6c1.657 0 3 1.343 3 3s-1.343 3-3 3h-4" fill="none" stroke="#fff8ef" stroke-linecap="round" stroke-linejoin="round" stroke-width="3"/>
</svg>
